<svg width="163" height="35" viewBox="0 0 163 35" fill="none" xmlns="http://www.w3.org/2000/svg">
<g id="Logo">
<g id="Group">
<path id="Vector" d="M17.9844 8.21875C15.9063 8.21875 14.0781 8.98438 12.75 10.2656C11.3438 8.98438 9.53125 8.21875 7.51562 8.21875C6.26562 8.21875 5.09375 8.51563 4.03125 9.04688C3.6875 8.51563 3.01562 8.14062 2.28125 8.14062C1.0625 8.14062 0 9.20313 0 10.4531V24.9375C0 26.1563 1.0625 27.1719 2.28125 27.1719C3.57812 27.1719 4.5625 26.1406 4.5625 24.9375V15.3906C4.5625 13.9063 5.89062 12.7812 7.51562 12.7812C9.14062 12.7812 10.4688 13.9219 10.4688 15.3906V24.8281C10.4688 26.125 11.4531 27.1094 12.75 27.1094C13.9688 27.1094 14.9844 26.125 14.9844 24.8281V15.3906C14.9844 13.9063 16.3125 12.7812 17.9844 12.7812C19.5313 12.7812 20.8594 13.9219 20.8594 15.3906V24.8281C20.8594 26.125 21.9219 27.1094 23.1719 27.1094C24.4219 27.1094 25.4063 26.125 25.4063 24.8281V15.3906C25.4219 11.4375 22.0469 8.21875 17.9844 8.21875Z" fill="white"/>
<path id="Vector_2" d="M31.4062 7.8125C30.0781 7.8125 29.0156 8.84375 29.0156 10.125V24.75C29.0156 26.0312 30.0781 27.0937 31.4062 27.0937C32.6563 27.0937 33.7188 26.0312 33.7188 24.75V10.125C33.7188 8.82812 32.6563 7.8125 31.4062 7.8125ZM31.4062 0C30.0781 0 29.0156 1.03125 29.0156 2.34375V2.53125C29.0156 3.78125 30.0781 4.84375 31.4062 4.84375C32.6563 4.84375 33.7188 3.78125 33.7188 2.53125V2.34375C33.7188 1.01562 32.6563 0 31.4062 0Z" fill="white"/>
<path id="Vector_3" d="M46.1562 8.1875C44.4531 8.1875 42.8906 8.6875 41.5313 9.54687C41.2344 8.64062 40.3906 8 39.4063 8C38.1563 8 37.125 9.03125 37.125 10.2812V24.7656C37.125 26.0156 38.1563 27.0469 39.4063 27.0469C40.6562 27.0469 41.6875 26.0156 41.6875 24.7656V18.3281C41.6875 15.7187 43.2031 12.75 46.1562 12.75C48.5469 12.75 50.5156 14.9062 50.5156 17.6094V24.7656C50.5156 26.0156 51.5 27.0469 52.7969 27.0469C54.0469 27.0469 55.0312 26.0156 55.0312 24.7656V17.6094C55.0156 12.3906 51.0469 8.1875 46.1562 8.1875Z" fill="white"/>
<path id="Vector_4" d="M60.625 7.8125C59.2969 7.8125 58.2344 8.84375 58.2344 10.125V24.75C58.2344 26.0312 59.2969 27.0937 60.625 27.0937C61.875 27.0937 62.9375 26.0312 62.9375 24.75V10.125C62.9375 8.82812 61.875 7.8125 60.625 7.8125ZM60.625 0C59.2969 0 58.2344 1.03125 58.2344 2.34375V2.53125C58.2344 3.78125 59.2969 4.84375 60.625 4.84375C61.875 4.84375 62.9375 3.78125 62.9375 2.53125V2.34375C62.9375 1.01562 61.875 0 60.625 0Z" fill="white"/>
</g>
<g id="Group_2">
<path id="Vector_5" d="M104.125 12.6562C101.438 12.6562 99.2812 14.8125 99.2812 17.5C99.2812 20.1875 101.438 22.3438 104.125 22.3438C106.813 22.3438 108.969 20.1875 108.969 17.5C108.969 14.8125 106.828 12.6562 104.125 12.6562Z" fill="white"/>
<path id="Vector_6" d="M146.094 12.7656C144.344 12.7656 142.828 13.6406 141.922 15.0469H149.953C149.203 13.6094 147.797 12.7656 146.094 12.7656Z" fill="white"/>
<path id="Vector_7" d="M119.781 17.5156C119.781 20.2813 122.016 22.5156 124.781 22.5156C127.547 22.5156 129.781 20.2813 129.781 17.5156C129.781 14.75 127.547 12.5156 124.781 12.5156C122.016 12.5 119.781 14.75 119.781 17.5156Z" fill="white"/>
<path id="Vector_8" d="M145.391 0H134.719V2.34375V24.75C134.719 26 133.703 27.0312 132.406 27.0312C131.375 27.0312 130.516 26.3906 130.203 25.4375C128.687 26.5 126.797 27.1094 124.781 27.1094C119.516 27.1094 115.187 22.8281 115.187 17.5156C115.187 12.25 119.516 7.92187 124.781 7.92187C126.75 7.92187 128.578 8.53125 130.125 9.51562V2.34375V0H84.9375C75.6875 0 68.0469 7.3125 67.5156 16.4375C67.5 16.7656 67.4844 17.1094 67.4844 17.4531C67.4844 17.7969 67.5 18.1406 67.5156 18.4687C68.0469 27.6562 75.6875 34.9062 84.9375 34.9062H145.406C155 34.9062 162.859 27.1094 162.937 17.5156C162.844 7.85938 154.984 0 145.391 0ZM79.875 17.5938C79.875 18.875 80.4375 20.1719 81.3906 21.0469C82.3437 22 83.5937 22.4844 84.875 22.4531C86.125 22.4531 87.2969 21.9687 88.2031 21.125C89.0781 20.25 90.5469 20.3281 91.3906 21.2344C92.2656 22.1406 92.1875 23.5781 91.2812 24.4531C89.5781 26.0469 87.3437 26.9531 84.9844 27H84.8281C82.3281 27 80.0156 26.0469 78.2344 24.3437C76.4062 22.5625 75.3906 20.2188 75.3125 17.6719C75.2812 15.1719 76.1875 12.75 78 10.9219C79.75 9.09375 82.0937 8.07812 84.6406 8C87.1719 7.96875 89.5625 8.90625 91.3906 10.6875C92.2969 11.5156 92.3437 13 91.4687 13.875C90.5937 14.7812 89.1562 14.8281 88.25 13.9531C87.2969 13.0469 86.0469 12.5469 84.7187 12.5469C83.3906 12.5469 82.1875 13.1094 81.2344 14.0625C80.3594 15.0156 79.8281 16.2656 79.875 17.5938ZM104.125 27.0312C98.8906 27.0312 94.6094 22.7813 94.6094 17.5156C94.6094 12.2813 98.8906 8 104.125 8C109.359 8 113.641 12.2812 113.672 17.5469C113.641 22.7812 109.359 27.0312 104.125 27.0312ZM155.109 16.4062C155.109 16.75 154.953 17.125 154.812 17.5C154.516 18.2188 153.859 18.8594 152.953 18.8594H141.281C141.812 21.0156 143.75 22.6875 146.094 22.6875C147.312 22.6875 149.094 22.1875 150.078 21.25C150.984 20.375 152.422 20.375 153.297 21.2812C154.203 22.1562 154.172 23.625 153.266 24.5C151.172 26.5156 148.266 27.1875 146.094 27.1875C140.828 27.1875 136.625 22.9375 136.625 17.6719C136.625 12.4844 140.828 8.15625 146.094 8.15625C146.656 8.15625 147.187 8.1875 147.766 8.3125C150.344 8.8125 152.547 10.3906 153.906 12.6719C154.516 13.75 155.187 15.1562 155.109 16.4062Z" fill="white"/>
</g>
</g>
</svg>
