<svg width="653" height="140" viewBox="0 0 653 140" fill="none" xmlns="http://www.w3.org/2000/svg">
<path d="M72.5 33.1875C64.1875 33.1875 56.875 36.25 51.5625 41.375C45.9375 36.25 38.6875 33.1875 30.625 33.1875C25.625 33.1875 20.9375 34.375 16.6875 36.5C15.3125 34.375 12.625 32.875 9.6875 32.875C4.81249 32.875 0.5625 37.125 0.5625 42.125V100.063C0.5625 104.938 4.81249 109 9.6875 109C14.875 109 18.8125 104.875 18.8125 100.063V61.875C18.8125 55.9375 24.125 51.4375 30.625 51.4375C37.125 51.4375 42.4375 56 42.4375 61.875V99.625C42.4375 104.813 46.375 108.75 51.5625 108.75C56.4375 108.75 60.5 104.813 60.5 99.625V61.875C60.5 55.9375 65.8125 51.4375 72.5 51.4375C78.6875 51.4375 84 56 84 61.875V99.625C84 104.813 88.25 108.75 93.25 108.75C98.25 108.75 102.188 104.813 102.188 99.625V61.875C102.25 46.0625 88.75 33.1875 72.5 33.1875Z" fill="black"/>
<path d="M126.187 31.5625C120.875 31.5625 116.625 35.6875 116.625 40.8125V99.3125C116.625 104.437 120.875 108.687 126.187 108.687C131.188 108.687 135.438 104.437 135.438 99.3125V40.8125C135.438 35.625 131.188 31.5625 126.187 31.5625ZM126.187 0.3125C120.875 0.3125 116.625 4.4375 116.625 9.6875V10.4375C116.625 15.4375 120.875 19.6875 126.187 19.6875C131.188 19.6875 135.438 15.4375 135.438 10.4375V9.6875C135.438 4.375 131.188 0.3125 126.187 0.3125Z" fill="black"/>
<path d="M185.188 33.0625C178.375 33.0625 172.125 35.0625 166.688 38.5C165.5 34.875 162.125 32.3125 158.188 32.3125C153.188 32.3125 149.062 36.4375 149.062 41.4375V99.375C149.062 104.375 153.188 108.5 158.188 108.5C163.187 108.5 167.313 104.375 167.313 99.375V73.625C167.313 63.1875 173.375 51.3125 185.188 51.3125C194.75 51.3125 202.625 59.9375 202.625 70.75V99.375C202.625 104.375 206.562 108.5 211.75 108.5C216.75 108.5 220.687 104.375 220.687 99.375V70.75C220.625 49.875 204.75 33.0625 185.188 33.0625Z" fill="black"/>
<path d="M243.063 31.5625C237.75 31.5625 233.5 35.6875 233.5 40.8125V99.3125C233.5 104.437 237.75 108.687 243.063 108.687C248.063 108.687 252.313 104.437 252.313 99.3125V40.8125C252.313 35.625 248.063 31.5625 243.063 31.5625ZM243.063 0.3125C237.75 0.3125 233.5 4.4375 233.5 9.6875V10.4375C233.5 15.4375 237.75 19.6875 243.063 19.6875C248.063 19.6875 252.313 15.4375 252.313 10.4375V9.6875C252.313 4.375 248.063 0.3125 243.063 0.3125Z" fill="black"/>
<path d="M417.063 50.9375C406.313 50.9375 397.688 59.5625 397.688 70.3125C397.688 81.0625 406.313 89.6875 417.063 89.6875C427.813 89.6875 436.438 81.0625 436.438 70.3125C436.438 59.5625 427.875 50.9375 417.063 50.9375Z" fill="black"/>
<path d="M584.938 51.375C577.938 51.375 571.875 54.875 568.25 60.5H600.375C597.375 54.75 591.75 51.375 584.938 51.375Z" fill="black"/>
<path d="M479.688 70.3748C479.688 81.4373 488.625 90.3748 499.688 90.3748C510.75 90.3748 519.688 81.4373 519.688 70.3748C519.688 59.3123 510.75 50.3748 499.688 50.3748C488.625 50.3123 479.688 59.3123 479.688 70.3748Z" fill="black"/>
<path d="M582.125 0.3125H539.437V9.6875V99.3125C539.437 104.312 535.375 108.438 530.187 108.438C526.062 108.438 522.625 105.875 521.375 102.062C515.312 106.312 507.75 108.75 499.687 108.75C478.625 108.75 461.312 91.625 461.312 70.375C461.312 49.3125 478.625 32 499.687 32C507.562 32 514.875 34.4375 521.062 38.375V9.6875V0.3125H340.313C303.313 0.3125 272.75 29.5625 270.625 66.0625C270.563 67.375 270.5 68.75 270.5 70.125C270.5 71.5 270.563 72.875 270.625 74.1875C272.75 110.937 303.313 139.937 340.313 139.937H582.187C620.562 139.937 652 108.75 652.312 70.375C651.937 31.75 620.5 0.3125 582.125 0.3125ZM320.062 70.6875C320.062 75.8125 322.312 81 326.125 84.5C329.937 88.3125 334.937 90.25 340.062 90.125C345.062 90.125 349.75 88.1875 353.375 84.8125C356.875 81.3125 362.75 81.625 366.125 85.25C369.625 88.875 369.312 94.625 365.687 98.125C358.875 104.5 349.937 108.125 340.5 108.312H339.875C329.875 108.312 320.625 104.5 313.5 97.6875C306.187 90.5625 302.125 81.1875 301.812 71C301.687 61 305.312 51.3125 312.562 44C319.562 36.6875 328.937 32.625 339.125 32.3125C349.25 32.1875 358.812 35.9375 366.125 43.0625C369.75 46.375 369.937 52.3125 366.437 55.8125C362.937 59.4375 357.187 59.625 353.562 56.125C349.75 52.5 344.75 50.5 339.437 50.5C334.125 50.5 329.312 52.75 325.5 56.5625C322 60.375 319.875 65.375 320.062 70.6875ZM417.062 108.438C396.125 108.438 379 91.4375 379 70.375C379 49.4375 396.125 32.3125 417.062 32.3125C438 32.3125 455.125 49.4375 455.25 70.5C455.125 91.4375 438 108.438 417.062 108.438ZM621 65.9375C621 67.3125 620.375 68.8125 619.812 70.3125C618.625 73.1875 616 75.75 612.375 75.75H565.687C567.812 84.375 575.562 91.0625 584.937 91.0625C589.812 91.0625 596.937 89.0625 600.875 85.3125C604.5 81.8125 610.25 81.8125 613.75 85.4375C617.375 88.9375 617.25 94.8125 613.625 98.3125C605.25 106.375 593.625 109.062 584.937 109.062C563.875 109.062 547.062 92.0625 547.062 71C547.062 50.25 563.875 32.9375 584.937 32.9375C587.187 32.9375 589.312 33.0625 591.625 33.5625C601.937 35.5625 610.75 41.875 616.187 51C618.625 55.3125 621.312 60.9375 621 65.9375Z" fill="black"/>
</svg>
